# Blender 4.0.2
# www.blender.org
mtllib table.mtl
o ClearCounter.Base.005
v -0.527325 0.017785 0.528633
v -0.527325 0.084333 0.595182
v -0.593874 0.084333 0.528633
v -0.527325 0.037277 0.575690
v -0.565747 0.045912 0.567055
v -0.574382 0.084333 0.575690
v -0.574382 0.037277 0.528633
v -0.593874 0.483623 0.528633
v -0.527325 0.483623 0.595182
v -0.574382 0.483623 0.575690
v -0.527325 0.017785 -0.536140
v -0.593874 0.084333 -0.536140
v -0.527325 0.084333 -0.602688
v -0.574382 0.037277 -0.536140
v -0.565747 0.045912 -0.574561
v -0.574382 0.084333 -0.583196
v -0.527325 0.037277 -0.583196
v -0.527325 0.483623 -0.602688
v -0.593874 0.483623 -0.536140
v -0.574382 0.483623 -0.583196
v 0.537448 0.017785 0.528633
v 0.603996 0.084333 0.528633
v 0.537448 0.084333 0.595182
v 0.584505 0.037277 0.528633
v 0.575870 0.045912 0.567055
v 0.584505 0.084333 0.575690
v 0.537448 0.037277 0.575690
v 0.537448 0.483623 0.595182
v 0.603996 0.483623 0.528633
v 0.584505 0.483623 0.575690
v 0.537448 0.017785 -0.536140
v 0.537448 0.084333 -0.602688
v 0.603996 0.084333 -0.536140
v 0.537448 0.037277 -0.583196
v 0.575870 0.045912 -0.574561
v 0.584505 0.084333 -0.583196
v 0.584505 0.037277 -0.536140
v 0.603996 0.483623 -0.536140
v 0.537448 0.483623 -0.602688
v 0.584505 0.483623 -0.583196
v -0.660422 0.550172 0.595182
v -0.593873 0.483623 0.595182
v -0.593873 0.550172 0.661730
v -0.640930 0.503115 0.595182
v -0.632295 0.511750 0.633603
v -0.593873 0.503115 0.642238
v -0.640930 0.550172 0.642238
v -0.660422 0.550172 -0.602688
v -0.593873 0.550172 -0.669236
v -0.593873 0.483623 -0.602688
v -0.640930 0.550172 -0.649745
v -0.632295 0.511750 -0.641110
v -0.593873 0.503115 -0.649745
v -0.640930 0.503115 -0.602688
v 0.603996 0.550172 -0.669236
v 0.670545 0.550172 -0.602688
v 0.603996 0.483623 -0.602688
v 0.651053 0.550172 -0.649745
v 0.642418 0.511750 -0.641110
v 0.651053 0.503115 -0.602688
v 0.603996 0.503115 -0.649745
v 0.670545 0.550172 0.595182
v 0.603996 0.550172 0.661730
v 0.603996 0.483623 0.595182
v 0.651053 0.550172 0.642238
v 0.642418 0.511750 0.633603
v 0.603996 0.503115 0.642238
v 0.651053 0.503115 0.595182
v -0.660422 0.616720 0.595182
v -0.593873 0.616720 0.661730
v -0.593873 0.683268 0.595182
v -0.640930 0.616720 0.642238
v -0.632295 0.655142 0.633603
v -0.593873 0.663777 0.642238
v -0.640930 0.663777 0.595182
v -0.660422 0.616720 -0.602688
v -0.593873 0.683268 -0.602688
v -0.593873 0.616720 -0.669236
v -0.640930 0.663777 -0.602688
v -0.632295 0.655142 -0.641110
v -0.593873 0.663777 -0.649745
v -0.640930 0.616720 -0.649745
v 0.603996 0.616720 -0.669236
v 0.603996 0.683268 -0.602688
v 0.670545 0.616720 -0.602688
v 0.603996 0.663777 -0.649745
v 0.642418 0.655142 -0.641110
v 0.651053 0.663777 -0.602688
v 0.651053 0.616720 -0.649745
v 0.670545 0.616720 0.595182
v 0.603996 0.683268 0.595182
v 0.603996 0.616720 0.661730
v 0.651053 0.663777 0.595182
v 0.642418 0.655142 0.633603
v 0.603996 0.663777 0.642238
v 0.651053 0.616720 0.642238
vn 0.1794 -0.1794 0.9673
vn 0.1951 -0.0000 0.9808
vn -0.1951 -0.0000 0.9808
vn -0.1794 -0.1794 0.9673
vn 0.9673 -0.1794 -0.1794
vn 0.9808 -0.0000 -0.1951
vn 0.9808 -0.0000 0.1951
vn 0.9673 -0.1794 0.1794
vn -0.1794 -0.1794 -0.9673
vn -0.1951 -0.0000 -0.9808
vn 0.1951 -0.0000 -0.9808
vn 0.1794 -0.1794 -0.9673
vn -0.9673 -0.1794 0.1794
vn -0.9808 -0.0000 0.1951
vn -0.9808 -0.0000 -0.1951
vn -0.9673 -0.1794 -0.1794
vn -0.1794 -0.9673 0.1794
vn -0.1602 -0.6922 0.7037
vn -0.5773 -0.5775 0.5773
vn -0.6965 -0.1726 0.6965
vn -0.7037 -0.6922 0.1602
vn -0.1794 -0.9673 -0.1794
vn -0.7037 -0.6922 -0.1602
vn -0.5773 -0.5775 -0.5773
vn -0.6965 -0.1726 -0.6965
vn -0.1602 -0.6922 -0.7037
vn 0.1794 -0.9673 0.1794
vn 0.7037 -0.6922 0.1602
vn 0.5773 -0.5775 0.5773
vn 0.6965 -0.1726 0.6965
vn 0.1602 -0.6922 0.7037
vn 0.1794 -0.9673 -0.1794
vn 0.1602 -0.6922 -0.7037
vn 0.5773 -0.5775 -0.5773
vn 0.6965 -0.1726 -0.6965
vn 0.7037 -0.6922 -0.1602
vn -0.7071 -0.0000 0.7071
vn -0.7071 -0.0000 -0.7071
vn 0.7071 -0.0000 -0.7071
vn 0.7071 -0.0000 0.7071
vn -0.1794 0.1794 -0.9673
vn 0.1794 0.1794 -0.9673
vn -0.9673 0.1794 0.1794
vn -0.9673 0.1794 -0.1794
vn 0.9673 0.1794 -0.1794
vn 0.9673 0.1794 0.1794
vn 0.1794 0.9673 -0.1794
vn -0.1794 0.9673 -0.1794
vn -0.1794 0.9673 0.1794
vn 0.1794 0.9673 0.1794
vn 0.1794 0.1794 0.9673
vn -0.1794 0.1794 0.9673
vn -0.2402 -0.9406 0.2402
vn -0.2402 -0.9406 -0.2402
vn 0.2402 -0.9406 -0.2402
vn 0.2402 -0.9406 0.2402
vn -0.6965 0.1726 0.6965
vn -0.5773 0.5774 0.5774
vn -0.6965 0.6965 0.1726
vn -0.1726 0.6965 0.6965
vn -0.6965 0.6965 -0.1726
vn -0.5773 0.5774 -0.5774
vn -0.6965 0.1726 -0.6965
vn -0.1726 0.6965 -0.6965
vn 0.1726 0.6965 -0.6965
vn 0.5773 0.5774 -0.5774
vn 0.6965 0.1726 -0.6965
vn 0.6965 0.6965 -0.1726
vn 0.6965 0.6965 0.1726
vn 0.5773 0.5774 0.5774
vn 0.6965 0.1726 0.6965
vn 0.1726 0.6965 0.6965
vt 0.484008 0.889018
vt 0.406405 0.894025
vt 0.406405 0.688200
vt 0.481682 0.692439
vt 0.701065 0.906044
vt 0.706173 0.983419
vt 0.500408 0.984090
vt 0.504491 0.908598
vt 0.718157 0.689152
vt 0.795761 0.684145
vt 0.795761 0.889969
vt 0.720484 0.885731
vt 0.501101 0.672125
vt 0.495993 0.594751
vt 0.701758 0.594079
vt 0.697675 0.669571
vt 0.500645 0.691516
vt 0.491129 0.692557
vt 0.490655 0.684846
vt 0.482865 0.682786
vt 0.501450 0.681664
vt 0.493553 0.681388
vt 0.491300 0.673500
vt 0.698651 0.688647
vt 0.697588 0.679112
vt 0.705338 0.678605
vt 0.707390 0.670748
vt 0.708525 0.689475
vt 0.708831 0.681537
vt 0.716786 0.679288
vt 0.503514 0.889523
vt 0.504578 0.899058
vt 0.496828 0.899564
vt 0.494776 0.907422
vt 0.493641 0.888695
vt 0.493335 0.896633
vt 0.485380 0.898882
vt 0.701521 0.886653
vt 0.711036 0.885613
vt 0.711511 0.893323
vt 0.719300 0.895384
vt 0.700716 0.896506
vt 0.708613 0.896782
vt 0.710866 0.904670
vt 0.406949 0.678517
vt 0.485836 0.595440
vt 0.795090 0.673957
vt 0.711471 0.594600
vt 0.716330 0.982730
vt 0.795216 0.899653
vt 0.407075 0.904213
vt 0.490695 0.983570
vt 0.281402 0.962795
vt 0.055966 0.961266
vt 0.056532 0.948468
vt 0.281236 0.949995
vt 0.025456 0.930267
vt 0.025543 0.704820
vt 0.038348 0.705316
vt 0.038251 0.930030
vt 0.312611 0.706718
vt 0.312525 0.932166
vt 0.299720 0.931670
vt 0.299816 0.706955
vt 0.280329 0.930715
vt 0.057542 0.929071
vt 0.057738 0.706271
vt 0.280525 0.707915
vt 0.056665 0.674191
vt 0.282101 0.675719
vt 0.281535 0.688518
vt 0.056832 0.686991
vt 0.015745 0.704687
vt 0.016411 0.696391
vt 0.024948 0.694493
vt 0.055377 0.654268
vt 0.056473 0.664272
vt 0.048136 0.664938
vt 0.046115 0.673612
vt 0.024939 0.940813
vt 0.016258 0.938847
vt 0.015541 0.930520
vt 0.055775 0.971060
vt 0.047487 0.970343
vt 0.045645 0.961799
vt 0.005546 0.931679
vt 0.291953 0.963374
vt 0.289931 0.972048
vt 0.281595 0.972714
vt 0.322323 0.932298
vt 0.321657 0.940595
vt 0.313120 0.942492
vt 0.282690 0.982718
vt 0.313128 0.696173
vt 0.321809 0.698138
vt 0.322526 0.706466
vt 0.282293 0.665926
vt 0.290580 0.666643
vt 0.292422 0.675186
vt 0.332521 0.705307
vt 0.039619 0.694547
vt 0.048724 0.697121
vt 0.048197 0.705911
vt 0.057420 0.696660
vt 0.046366 0.688175
vt 0.047918 0.929404
vt 0.048396 0.938081
vt 0.039483 0.940477
vt 0.057166 0.938624
vt 0.045786 0.947149
vt 0.280648 0.940326
vt 0.289344 0.939865
vt 0.291701 0.948811
vt 0.289871 0.931075
vt 0.298449 0.942439
vt 0.290149 0.707582
vt 0.289671 0.698905
vt 0.298584 0.696509
vt 0.280901 0.698362
vt 0.292281 0.689837
vt 0.005546 0.703535
vt 0.054559 0.981249
vt 0.332522 0.933450
vt 0.283509 0.655737
s 1
usemtl Counters_01.008
f 23/1/1 28/2/2 9/3/3 2/4/4
f 33/5/5 38/6/6 29/7/7 22/8/8
f 13/9/9 18/10/10 39/11/11 32/12/12
f 3/13/13 8/14/14 19/15/15 12/16/16
f 1/17/17 4/18/18 5/19/19
f 2/4/4 6/20/20 5/19/19 4/18/18
f 3/13/13 7/21/21 5/22/19 6/23/20
f 11/24/22 14/25/23 15/26/24
f 12/16/16 16/27/25 15/26/24 14/25/23
f 13/9/9 17/28/26 15/29/24 16/30/25
f 21/31/27 24/32/28 25/33/29
f 22/8/8 26/34/30 25/33/29 24/32/28
f 23/1/1 27/35/31 25/36/29 26/37/30
f 31/38/32 34/39/33 35/40/34
f 32/12/12 36/41/35 35/40/34 34/39/33
f 33/5/5 37/42/36 35/43/34 36/44/35
f 11/24/22 1/17/17 7/21/21 14/25/23
f 14/25/23 7/21/21 3/13/13 12/16/16
f 2/4/4 9/3/3 10/45/37 6/20/20
f 6/23/20 10/46/37 8/14/14 3/13/13
f 18/10/10 13/9/9 16/30/25 20/47/38
f 20/48/38 16/27/25 12/16/16 19/15/15
f 31/38/32 11/24/22 17/28/26 34/39/33
f 34/39/33 17/28/26 13/9/9 32/12/12
f 38/6/6 33/5/5 36/44/35 40/49/39
f 40/50/39 36/41/35 32/12/12 39/11/11
f 21/31/27 31/38/32 37/42/36 24/32/28
f 24/32/28 37/42/36 33/5/5 22/8/8
f 28/2/2 23/1/1 26/37/30 30/51/40
f 30/52/40 26/34/30 22/8/8 29/7/7
f 1/17/17 21/31/27 27/35/31 4/18/18
f 4/18/18 27/35/31 23/1/1 2/4/4
f 11/24/22 31/38/32 21/31/27 1/17/17
f 7/21/21 1/17/17 5/22/19
f 27/35/31 21/31/27 25/36/29
f 37/42/36 31/38/32 35/43/34
f 17/28/26 11/24/22 15/29/24
f 55/53/12 49/54/9 78/55/41 83/56/42
f 48/57/16 41/58/13 69/59/43 76/60/44
f 62/61/8 56/62/5 85/63/45 90/64/46
f 84/65/47 77/66/48 71/67/49 91/68/50
f 43/69/4 63/70/1 92/71/51 70/72/52
f 41/58/13 44/73/21 45/74/19 47/75/20
f 42/76/53 46/77/18 45/78/19
f 43/69/4 47/79/20 45/78/19 46/77/18
f 48/57/16 51/80/25 52/81/24 54/82/23
f 49/54/9 53/83/26 52/84/24 51/85/25
f 50/86/54 54/82/23 52/81/24
f 55/53/12 58/87/35 59/88/34 61/89/33
f 56/62/5 60/90/36 59/91/34 58/92/35
f 57/93/55 61/89/33 59/88/34
f 62/61/8 65/94/30 66/95/29 68/96/28
f 63/70/1 67/97/31 66/98/29 65/99/30
f 64/100/56 68/96/28 66/95/29
f 69/59/43 72/101/57 73/102/58 75/103/59
f 70/72/52 74/104/60 73/102/58 72/105/57
f 71/67/49 75/103/59 73/102/58 74/104/60
f 76/60/44 79/106/61 80/107/62 82/108/63
f 77/66/48 81/109/64 80/107/62 79/106/61
f 78/55/41 82/110/63 80/107/62 81/109/64
f 83/56/42 86/111/65 87/112/66 89/113/67
f 84/65/47 88/114/68 87/112/66 86/111/65
f 85/63/45 89/115/67 87/112/66 88/114/68
f 90/64/46 93/116/69 94/117/70 96/118/71
f 91/68/50 95/119/72 94/117/70 93/116/69
f 92/71/51 96/120/71 94/117/70 95/119/72
f 41/58/13 48/57/16 54/82/23 44/73/21
f 44/73/21 54/82/23 50/86/54 42/121/53
f 49/54/9 55/53/12 61/89/33 53/83/26
f 53/83/26 61/89/33 57/93/55 50/122/54
f 56/62/5 62/61/8 68/96/28 60/90/36
f 60/90/36 68/96/28 64/100/56 57/123/55
f 63/70/1 43/69/4 46/77/18 67/97/31
f 67/97/31 46/77/18 42/76/53 64/124/56
f 71/67/49 77/66/48 79/106/61 75/103/59
f 75/103/59 79/106/61 76/60/44 69/59/43
f 77/66/48 84/65/47 86/111/65 81/109/64
f 81/109/64 86/111/65 83/56/42 78/55/41
f 84/65/47 91/68/50 93/116/69 88/114/68
f 88/114/68 93/116/69 90/64/46 85/63/45
f 91/68/50 71/67/49 74/104/60 95/119/72
f 95/119/72 74/104/60 70/72/52 92/71/51
f 43/69/4 70/72/52 72/105/57 47/79/20
f 47/75/20 72/101/57 69/59/43 41/58/13
f 78/55/41 49/54/9 51/85/25 82/110/63
f 82/108/63 51/80/25 48/57/16 76/60/44
f 62/61/8 90/64/46 96/118/71 65/94/30
f 65/99/30 96/120/71 92/71/51 63/70/1
f 85/63/45 56/62/5 58/92/35 89/115/67
f 89/113/67 58/87/35 55/53/12 83/56/42
f 67/97/31 64/124/56 66/98/29
f 44/73/21 42/121/53 45/74/19
f 53/83/26 50/122/54 52/84/24
f 60/90/36 57/123/55 59/91/34
o ClearCounter.Base.007
v -0.400000 0.000000 0.400000
v -0.400000 0.050000 0.450000
v -0.450000 0.050000 0.400000
v -0.400000 0.014645 0.435355
v -0.428867 0.021132 0.428867
v -0.435355 0.050000 0.435355
v -0.435355 0.014645 0.400000
v -0.450000 0.350000 0.400000
v -0.400000 0.350000 0.450000
v -0.435355 0.350000 0.435355
v -0.400000 -0.000000 -0.400000
v -0.450000 0.050000 -0.400000
v -0.400000 0.050000 -0.450000
v -0.435355 0.014645 -0.400000
v -0.428867 0.021132 -0.428867
v -0.435355 0.050000 -0.435355
v -0.400000 0.014645 -0.435355
v -0.400000 0.350000 -0.450000
v -0.450000 0.350000 -0.400000
v -0.435355 0.350000 -0.435355
v 0.400000 0.000000 0.400000
v 0.450000 0.050000 0.400000
v 0.400000 0.050000 0.450000
v 0.435355 0.014645 0.400000
v 0.428867 0.021132 0.428867
v 0.435355 0.050000 0.435355
v 0.400000 0.014645 0.435355
v 0.400000 0.350000 0.450000
v 0.450000 0.350000 0.400000
v 0.435355 0.350000 0.435355
v 0.400000 -0.000000 -0.400000
v 0.400000 0.050000 -0.450000
v 0.450000 0.050000 -0.400000
v 0.400000 0.014645 -0.435355
v 0.428867 0.021132 -0.428867
v 0.435355 0.050000 -0.435355
v 0.435355 0.014645 -0.400000
v 0.450000 0.350000 -0.400000
v 0.400000 0.350000 -0.450000
v 0.435355 0.350000 -0.435355
v -0.500000 0.400000 0.450000
v -0.450000 0.350000 0.450000
v -0.450000 0.400000 0.500000
v -0.485355 0.364645 0.450000
v -0.478868 0.371133 0.478868
v -0.450000 0.364645 0.485355
v -0.485355 0.400000 0.485355
v -0.500000 0.400000 -0.450000
v -0.450000 0.400000 -0.500000
v -0.450000 0.350000 -0.450000
v -0.485355 0.400000 -0.485355
v -0.478868 0.371133 -0.478868
v -0.450000 0.364645 -0.485355
v -0.485355 0.364645 -0.450000
v 0.450000 0.400000 -0.500000
v 0.500000 0.400000 -0.450000
v 0.450000 0.350000 -0.450000
v 0.485355 0.400000 -0.485355
v 0.478868 0.371133 -0.478868
v 0.485355 0.364645 -0.450000
v 0.450000 0.364645 -0.485355
v 0.500000 0.400000 0.450000
v 0.450000 0.400000 0.500000
v 0.450000 0.350000 0.450000
v 0.485355 0.400000 0.485355
v 0.478868 0.371133 0.478868
v 0.450000 0.364645 0.485355
v 0.485355 0.364645 0.450000
v -0.500000 0.450000 0.450000
v -0.450000 0.450000 0.500000
v -0.450000 0.500000 0.450000
v -0.485355 0.450000 0.485355
v -0.478868 0.478868 0.478868
v -0.450000 0.485355 0.485355
v -0.485355 0.485355 0.450000
v -0.500000 0.450000 -0.450000
v -0.450000 0.500000 -0.450000
v -0.450000 0.450000 -0.500000
v -0.485355 0.485355 -0.450000
v -0.478868 0.478868 -0.478868
v -0.450000 0.485355 -0.485355
v -0.485355 0.450000 -0.485355
v 0.450000 0.450000 -0.500000
v 0.450000 0.500000 -0.450000
v 0.500000 0.450000 -0.450000
v 0.450000 0.485355 -0.485355
v 0.478868 0.478868 -0.478868
v 0.485355 0.485355 -0.450000
v 0.485355 0.450000 -0.485355
v 0.500000 0.450000 0.450000
v 0.450000 0.500000 0.450000
v 0.450000 0.450000 0.500000
v 0.485355 0.485355 0.450000
v 0.478868 0.478868 0.478868
v 0.450000 0.485355 0.485355
v 0.485355 0.450000 0.485355
vn 0.1794 -0.1794 0.9673
vn 0.1951 -0.0000 0.9808
vn -0.1951 -0.0000 0.9808
vn -0.1794 -0.1794 0.9673
vn 0.9673 -0.1794 -0.1794
vn 0.9808 -0.0000 -0.1951
vn 0.9808 -0.0000 0.1951
vn 0.9673 -0.1794 0.1794
vn -0.1794 -0.1794 -0.9673
vn -0.1951 -0.0000 -0.9808
vn 0.1951 -0.0000 -0.9808
vn 0.1794 -0.1794 -0.9673
vn -0.9673 -0.1794 0.1794
vn -0.9808 -0.0000 0.1951
vn -0.9808 -0.0000 -0.1951
vn -0.9673 -0.1794 -0.1794
vn -0.1794 -0.9673 0.1794
vn -0.1602 -0.6922 0.7037
vn -0.5773 -0.5775 0.5773
vn -0.6965 -0.1726 0.6965
vn -0.7037 -0.6922 0.1602
vn -0.1794 -0.9673 -0.1794
vn -0.7037 -0.6922 -0.1602
vn -0.5773 -0.5775 -0.5773
vn -0.6965 -0.1726 -0.6965
vn -0.1602 -0.6922 -0.7037
vn 0.1794 -0.9673 0.1794
vn 0.7037 -0.6922 0.1602
vn 0.5773 -0.5775 0.5773
vn 0.6965 -0.1726 0.6965
vn 0.1602 -0.6922 0.7037
vn 0.1794 -0.9673 -0.1794
vn 0.1602 -0.6922 -0.7037
vn 0.5773 -0.5775 -0.5773
vn 0.6965 -0.1726 -0.6965
vn 0.7037 -0.6922 -0.1602
vn -0.7071 -0.0000 0.7071
vn -0.7071 -0.0000 -0.7071
vn 0.7071 -0.0000 -0.7071
vn 0.7071 -0.0000 0.7071
vn -0.1794 0.1794 -0.9673
vn 0.1794 0.1794 -0.9673
vn -0.9673 0.1794 0.1794
vn -0.9673 0.1794 -0.1794
vn 0.9673 0.1794 -0.1794
vn 0.9673 0.1794 0.1794
vn 0.1794 0.9673 -0.1794
vn -0.1794 0.9673 -0.1794
vn -0.1794 0.9673 0.1794
vn 0.1794 0.9673 0.1794
vn 0.1794 0.1794 0.9673
vn -0.1794 0.1794 0.9673
vn -0.2402 -0.9406 0.2402
vn -0.2402 -0.9406 -0.2402
vn 0.2402 -0.9406 -0.2402
vn 0.2402 -0.9406 0.2402
vn -0.6965 0.1726 0.6965
vn -0.5774 0.5774 0.5774
vn -0.6965 0.6965 0.1726
vn -0.1726 0.6965 0.6965
vn -0.6965 0.6965 -0.1726
vn -0.5774 0.5774 -0.5774
vn -0.6965 0.1726 -0.6965
vn -0.1726 0.6965 -0.6965
vn 0.1726 0.6965 -0.6965
vn 0.5774 0.5774 -0.5774
vn 0.6965 0.1726 -0.6965
vn 0.6965 0.6965 -0.1726
vn 0.6965 0.6965 0.1726
vn 0.5774 0.5774 0.5774
vn 0.6965 0.1726 0.6965
vn 0.1726 0.6965 0.6965
vt 0.484008 0.889018
vt 0.406405 0.894025
vt 0.406405 0.688200
vt 0.481682 0.692439
vt 0.701065 0.906044
vt 0.706173 0.983419
vt 0.500408 0.984090
vt 0.504491 0.908598
vt 0.718157 0.689152
vt 0.795761 0.684145
vt 0.795761 0.889969
vt 0.720484 0.885731
vt 0.501101 0.672125
vt 0.495993 0.594751
vt 0.701758 0.594079
vt 0.697675 0.669571
vt 0.500645 0.691516
vt 0.491129 0.692557
vt 0.490655 0.684846
vt 0.482865 0.682786
vt 0.501450 0.681664
vt 0.493553 0.681388
vt 0.491300 0.673500
vt 0.698651 0.688647
vt 0.697588 0.679112
vt 0.705338 0.678605
vt 0.707390 0.670748
vt 0.708525 0.689475
vt 0.708831 0.681537
vt 0.716786 0.679288
vt 0.503514 0.889523
vt 0.504578 0.899058
vt 0.496828 0.899564
vt 0.494776 0.907422
vt 0.493641 0.888695
vt 0.493335 0.896633
vt 0.485380 0.898882
vt 0.701521 0.886653
vt 0.711036 0.885613
vt 0.711511 0.893323
vt 0.719300 0.895384
vt 0.700716 0.896506
vt 0.708613 0.896782
vt 0.710866 0.904670
vt 0.406949 0.678517
vt 0.485836 0.595440
vt 0.795090 0.673957
vt 0.711471 0.594600
vt 0.716330 0.982730
vt 0.795216 0.899653
vt 0.407075 0.904213
vt 0.490695 0.983570
vt 0.281402 0.962795
vt 0.055966 0.961266
vt 0.056532 0.948468
vt 0.281236 0.949995
vt 0.025456 0.930267
vt 0.025543 0.704820
vt 0.038348 0.705316
vt 0.038251 0.930030
vt 0.312611 0.706718
vt 0.312525 0.932166
vt 0.299720 0.931670
vt 0.299816 0.706955
vt 0.280329 0.930715
vt 0.057542 0.929071
vt 0.057738 0.706271
vt 0.280525 0.707915
vt 0.056665 0.674191
vt 0.282101 0.675719
vt 0.281535 0.688518
vt 0.056832 0.686991
vt 0.015745 0.704687
vt 0.016411 0.696391
vt 0.024948 0.694493
vt 0.055377 0.654268
vt 0.056473 0.664272
vt 0.048136 0.664938
vt 0.046115 0.673612
vt 0.024939 0.940813
vt 0.016258 0.938847
vt 0.015541 0.930520
vt 0.055775 0.971060
vt 0.047487 0.970343
vt 0.045645 0.961799
vt 0.005546 0.931679
vt 0.291953 0.963374
vt 0.289931 0.972048
vt 0.281595 0.972714
vt 0.322323 0.932298
vt 0.321657 0.940595
vt 0.313120 0.942492
vt 0.282690 0.982718
vt 0.313128 0.696173
vt 0.321809 0.698138
vt 0.322526 0.706466
vt 0.282293 0.665926
vt 0.290580 0.666643
vt 0.292422 0.675186
vt 0.332521 0.705307
vt 0.039619 0.694547
vt 0.048724 0.697121
vt 0.048197 0.705911
vt 0.057420 0.696660
vt 0.046366 0.688175
vt 0.047918 0.929404
vt 0.048396 0.938081
vt 0.039483 0.940477
vt 0.057166 0.938624
vt 0.045786 0.947149
vt 0.280648 0.940326
vt 0.289344 0.939865
vt 0.291701 0.948811
vt 0.289871 0.931075
vt 0.298449 0.942439
vt 0.290149 0.707582
vt 0.289671 0.698905
vt 0.298584 0.696509
vt 0.280901 0.698362
vt 0.292281 0.689837
vt 0.005546 0.703535
vt 0.054559 0.981249
vt 0.332522 0.933450
vt 0.283509 0.655737
s 1
usemtl Counters_01.008
f 119/125/73 124/126/74 105/127/75 98/128/76
f 129/129/77 134/130/78 125/131/79 118/132/80
f 109/133/81 114/134/82 135/135/83 128/136/84
f 99/137/85 104/138/86 115/139/87 108/140/88
f 97/141/89 100/142/90 101/143/91
f 98/128/76 102/144/92 101/143/91 100/142/90
f 99/137/85 103/145/93 101/146/91 102/147/92
f 107/148/94 110/149/95 111/150/96
f 108/140/88 112/151/97 111/150/96 110/149/95
f 109/133/81 113/152/98 111/153/96 112/154/97
f 117/155/99 120/156/100 121/157/101
f 118/132/80 122/158/102 121/157/101 120/156/100
f 119/125/73 123/159/103 121/160/101 122/161/102
f 127/162/104 130/163/105 131/164/106
f 128/136/84 132/165/107 131/164/106 130/163/105
f 129/129/77 133/166/108 131/167/106 132/168/107
f 107/148/94 97/141/89 103/145/93 110/149/95
f 110/149/95 103/145/93 99/137/85 108/140/88
f 98/128/76 105/127/75 106/169/109 102/144/92
f 102/147/92 106/170/109 104/138/86 99/137/85
f 114/134/82 109/133/81 112/154/97 116/171/110
f 116/172/110 112/151/97 108/140/88 115/139/87
f 127/162/104 107/148/94 113/152/98 130/163/105
f 130/163/105 113/152/98 109/133/81 128/136/84
f 134/130/78 129/129/77 132/168/107 136/173/111
f 136/174/111 132/165/107 128/136/84 135/135/83
f 117/155/99 127/162/104 133/166/108 120/156/100
f 120/156/100 133/166/108 129/129/77 118/132/80
f 124/126/74 119/125/73 122/161/102 126/175/112
f 126/176/112 122/158/102 118/132/80 125/131/79
f 97/141/89 117/155/99 123/159/103 100/142/90
f 100/142/90 123/159/103 119/125/73 98/128/76
f 107/148/94 127/162/104 117/155/99 97/141/89
f 103/145/93 97/141/89 101/146/91
f 123/159/103 117/155/99 121/160/101
f 133/166/108 127/162/104 131/167/106
f 113/152/98 107/148/94 111/153/96
f 151/177/84 145/178/81 174/179/113 179/180/114
f 144/181/88 137/182/85 165/183/115 172/184/116
f 158/185/80 152/186/77 181/187/117 186/188/118
f 180/189/119 173/190/120 167/191/121 187/192/122
f 139/193/76 159/194/73 188/195/123 166/196/124
f 137/182/85 140/197/93 141/198/91 143/199/92
f 138/200/125 142/201/90 141/202/91
f 139/193/76 143/203/92 141/202/91 142/201/90
f 144/181/88 147/204/97 148/205/96 150/206/95
f 145/178/81 149/207/98 148/208/96 147/209/97
f 146/210/126 150/206/95 148/205/96
f 151/177/84 154/211/107 155/212/106 157/213/105
f 152/186/77 156/214/108 155/215/106 154/216/107
f 153/217/127 157/213/105 155/212/106
f 158/185/80 161/218/102 162/219/101 164/220/100
f 159/194/73 163/221/103 162/222/101 161/223/102
f 160/224/128 164/220/100 162/219/101
f 165/183/115 168/225/129 169/226/130 171/227/131
f 166/196/124 170/228/132 169/226/130 168/229/129
f 167/191/121 171/227/131 169/226/130 170/228/132
f 172/184/116 175/230/133 176/231/134 178/232/135
f 173/190/120 177/233/136 176/231/134 175/230/133
f 174/179/113 178/234/135 176/231/134 177/233/136
f 179/180/114 182/235/137 183/236/138 185/237/139
f 180/189/119 184/238/140 183/236/138 182/235/137
f 181/187/117 185/239/139 183/236/138 184/238/140
f 186/188/118 189/240/141 190/241/142 192/242/143
f 187/192/122 191/243/144 190/241/142 189/240/141
f 188/195/123 192/244/143 190/241/142 191/243/144
f 137/182/85 144/181/88 150/206/95 140/197/93
f 140/197/93 150/206/95 146/210/126 138/245/125
f 145/178/81 151/177/84 157/213/105 149/207/98
f 149/207/98 157/213/105 153/217/127 146/246/126
f 152/186/77 158/185/80 164/220/100 156/214/108
f 156/214/108 164/220/100 160/224/128 153/247/127
f 159/194/73 139/193/76 142/201/90 163/221/103
f 163/221/103 142/201/90 138/200/125 160/248/128
f 167/191/121 173/190/120 175/230/133 171/227/131
f 171/227/131 175/230/133 172/184/116 165/183/115
f 173/190/120 180/189/119 182/235/137 177/233/136
f 177/233/136 182/235/137 179/180/114 174/179/113
f 180/189/119 187/192/122 189/240/141 184/238/140
f 184/238/140 189/240/141 186/188/118 181/187/117
f 187/192/122 167/191/121 170/228/132 191/243/144
f 191/243/144 170/228/132 166/196/124 188/195/123
f 139/193/76 166/196/124 168/229/129 143/203/92
f 143/199/92 168/225/129 165/183/115 137/182/85
f 174/179/113 145/178/81 147/209/97 178/234/135
f 178/232/135 147/204/97 144/181/88 172/184/116
f 158/185/80 186/188/118 192/242/143 161/218/102
f 161/223/102 192/244/143 188/195/123 159/194/73
f 181/187/117 152/186/77 154/216/107 185/239/139
f 185/237/139 154/211/107 151/177/84 179/180/114
f 163/221/103 160/248/128 162/222/101
f 140/197/93 138/245/125 141/198/91
f 149/207/98 146/246/126 148/208/96
f 156/214/108 153/247/127 155/215/106
