# Blender 4.0.2
# www.blender.org
mtllib bigtable2.mtl
o ClearCounter.Base.007
v 0.400000 0.000000 0.593150
v 0.450000 0.050000 0.593150
v 0.400000 0.050000 0.667294
v 0.435355 0.014645 0.593150
v 0.428867 0.021132 0.635956
v 0.435355 0.050000 0.645577
v 0.400000 0.014645 0.645577
v 0.400000 0.350000 0.667294
v 0.450000 0.350000 0.593150
v 0.435355 0.350000 0.645577
v -0.400000 -0.000000 0.593150
v -0.400000 0.050000 0.667294
v -0.450000 0.050000 0.593150
v -0.400000 0.014645 0.645577
v -0.428867 0.021132 0.635956
v -0.435355 0.050000 0.645577
v -0.435355 0.014645 0.593150
v -0.450000 0.350000 0.593150
v -0.400000 0.350000 0.667294
v -0.435355 0.350000 0.645577
v 0.400000 0.000000 -0.593150
v 0.400000 0.050000 -0.667294
v 0.450000 0.050000 -0.593150
v 0.400000 0.014645 -0.645577
v 0.428867 0.021132 -0.635956
v 0.435355 0.050000 -0.645577
v 0.435355 0.014645 -0.593150
v 0.450000 0.350000 -0.593150
v 0.400000 0.350000 -0.667294
v 0.435355 0.350000 -0.645577
v -0.400000 -0.000000 -0.593150
v -0.450000 0.050000 -0.593150
v -0.400000 0.050000 -0.667294
v -0.435355 0.014645 -0.593150
v -0.428867 0.021132 -0.635956
v -0.435355 0.050000 -0.645577
v -0.400000 0.014645 -0.645577
v -0.400000 0.350000 -0.667294
v -0.450000 0.350000 -0.593150
v -0.435355 0.350000 -0.645577
v 0.450000 0.400000 0.741438
v 0.450000 0.350000 0.667294
v 0.500000 0.400000 0.667294
v 0.450000 0.364645 0.719721
v 0.478868 0.371133 0.710101
v 0.485355 0.364645 0.667294
v 0.485355 0.400000 0.719721
v -0.450000 0.400000 0.741438
v -0.500000 0.400000 0.667294
v -0.450000 0.350000 0.667294
v -0.485355 0.400000 0.719721
v -0.478868 0.371133 0.710101
v -0.485355 0.364645 0.667294
v -0.450000 0.364645 0.719721
v -0.500000 0.400000 -0.667294
v -0.450000 0.400000 -0.741438
v -0.450000 0.350000 -0.667294
v -0.485355 0.400000 -0.719721
v -0.478868 0.371133 -0.710101
v -0.450000 0.364645 -0.719721
v -0.485355 0.364645 -0.667294
v 0.450000 0.400000 -0.741438
v 0.500000 0.400000 -0.667294
v 0.450000 0.350000 -0.667294
v 0.485355 0.400000 -0.719721
v 0.478868 0.371133 -0.710101
v 0.485355 0.364645 -0.667294
v 0.450000 0.364645 -0.719721
v 0.450000 0.450000 0.741438
v 0.500000 0.450000 0.667294
v 0.450000 0.500000 0.667294
v 0.485355 0.450000 0.719721
v 0.478868 0.478868 0.710101
v 0.485355 0.485355 0.667294
v 0.450000 0.485355 0.719721
v -0.450000 0.450000 0.741438
v -0.450000 0.500000 0.667294
v -0.500000 0.450000 0.667294
v -0.450000 0.485355 0.719721
v -0.478868 0.478868 0.710101
v -0.485355 0.485355 0.667294
v -0.485355 0.450000 0.719721
v -0.500000 0.450000 -0.667294
v -0.450000 0.500000 -0.667294
v -0.450000 0.450000 -0.741438
v -0.485355 0.485355 -0.667294
v -0.478868 0.478868 -0.710101
v -0.450000 0.485355 -0.719721
v -0.485355 0.450000 -0.719721
v 0.450000 0.450000 -0.741438
v 0.450000 0.500000 -0.667294
v 0.500000 0.450000 -0.667294
v 0.450000 0.485355 -0.719721
v 0.478868 0.478868 -0.710101
v 0.485355 0.485355 -0.667294
v 0.485355 0.450000 -0.719721
vn 0.9759 -0.1810 -0.1220
vn 0.9911 -0.0000 -0.1330
vn 0.9911 -0.0000 0.1330
vn 0.9759 -0.1810 0.1220
vn -0.2563 -0.2563 -0.9320
vn -0.2829 -0.0000 -0.9591
vn 0.2829 -0.0000 -0.9591
vn 0.2563 -0.2563 -0.9320
vn -0.9759 -0.1810 0.1220
vn -0.9911 -0.0000 0.1330
vn -0.9911 -0.0000 -0.1330
vn -0.9759 -0.1810 -0.1220
vn 0.2563 -0.2563 0.9320
vn 0.2829 -0.0000 0.9591
vn -0.2829 -0.0000 0.9591
vn -0.2563 -0.2563 0.9320
vn 0.1810 -0.9759 0.1220
vn 0.7087 -0.6971 0.1088
vn 0.6382 -0.6384 0.4304
vn 0.8121 -0.2012 0.5477
vn 0.1875 -0.8101 0.5555
vn -0.1810 -0.9759 0.1220
vn -0.1875 -0.8101 0.5555
vn -0.6382 -0.6384 0.4304
vn -0.8121 -0.2012 0.5477
vn -0.7087 -0.6971 0.1088
vn 0.1810 -0.9759 -0.1220
vn 0.1875 -0.8101 -0.5555
vn 0.6382 -0.6384 -0.4304
vn 0.8121 -0.2012 -0.5477
vn 0.7087 -0.6971 -0.1088
vn -0.1810 -0.9759 -0.1220
vn -0.7087 -0.6971 -0.1088
vn -0.6382 -0.6384 -0.4304
vn -0.8121 -0.2012 -0.5477
vn -0.1875 -0.8101 -0.5555
vn 0.8291 -0.0000 0.5591
vn -0.8291 -0.0000 0.5591
vn -0.8291 -0.0000 -0.5591
vn 0.8291 -0.0000 -0.5591
vn -0.9759 0.1810 0.1220
vn -0.9759 0.1810 -0.1220
vn 0.2563 0.2563 0.9320
vn -0.2563 0.2563 0.9320
vn -0.2563 0.2563 -0.9320
vn 0.2563 0.2563 -0.9320
vn -0.1810 0.9759 -0.1220
vn -0.1810 0.9759 0.1220
vn 0.1810 0.9759 0.1220
vn 0.1810 0.9759 -0.1220
vn 0.9759 0.1810 -0.1220
vn 0.9759 0.1810 0.1220
vn 0.1875 -0.8101 0.5554
vn 0.2440 -0.9557 0.1646
vn -0.1875 -0.8101 0.5554
vn -0.2440 -0.9557 0.1646
vn -0.1875 -0.8101 -0.5554
vn -0.2440 -0.9557 -0.1646
vn 0.1875 -0.8101 -0.5554
vn 0.2440 -0.9557 -0.1646
vn 0.8121 0.2012 0.5477
vn 0.6383 0.6383 0.4304
vn 0.2012 0.8121 0.5477
vn 0.7022 0.7022 0.1173
vn -0.2012 0.8121 0.5477
vn -0.6383 0.6383 0.4304
vn -0.8121 0.2012 0.5477
vn -0.7022 0.7022 0.1173
vn -0.7022 0.7022 -0.1173
vn -0.6383 0.6383 -0.4304
vn -0.8121 0.2012 -0.5477
vn -0.2012 0.8121 -0.5477
vn 0.2012 0.8121 -0.5477
vn 0.6383 0.6383 -0.4304
vn 0.8121 0.2012 -0.5477
vn 0.7022 0.7022 -0.1173
vt 0.484008 0.889018
vt 0.406405 0.894025
vt 0.406405 0.688200
vt 0.481682 0.692439
vt 0.701065 0.906044
vt 0.706173 0.983419
vt 0.500408 0.984090
vt 0.504491 0.908598
vt 0.718157 0.689152
vt 0.795761 0.684145
vt 0.795761 0.889969
vt 0.720484 0.885731
vt 0.501101 0.672125
vt 0.495993 0.594751
vt 0.701758 0.594079
vt 0.697675 0.669571
vt 0.500645 0.691516
vt 0.491129 0.692557
vt 0.490655 0.684846
vt 0.482865 0.682786
vt 0.501450 0.681664
vt 0.493553 0.681388
vt 0.491300 0.673500
vt 0.698651 0.688647
vt 0.697588 0.679112
vt 0.705338 0.678605
vt 0.707390 0.670748
vt 0.708525 0.689475
vt 0.708831 0.681537
vt 0.716786 0.679288
vt 0.503514 0.889523
vt 0.504578 0.899058
vt 0.496828 0.899564
vt 0.494776 0.907422
vt 0.493641 0.888695
vt 0.493335 0.896633
vt 0.485380 0.898882
vt 0.701521 0.886653
vt 0.711036 0.885613
vt 0.711511 0.893323
vt 0.719300 0.895384
vt 0.700716 0.896506
vt 0.708613 0.896782
vt 0.710866 0.904670
vt 0.406949 0.678517
vt 0.485836 0.595440
vt 0.795090 0.673957
vt 0.711471 0.594600
vt 0.716330 0.982730
vt 0.795216 0.899653
vt 0.407075 0.904213
vt 0.490695 0.983570
vt 0.281402 0.962795
vt 0.055966 0.961266
vt 0.056532 0.948468
vt 0.281236 0.949995
vt 0.025456 0.930267
vt 0.025543 0.704820
vt 0.038348 0.705316
vt 0.038251 0.930030
vt 0.312611 0.706718
vt 0.312525 0.932166
vt 0.299720 0.931670
vt 0.299816 0.706955
vt 0.280329 0.930715
vt 0.057542 0.929071
vt 0.057738 0.706271
vt 0.280525 0.707915
vt 0.056665 0.674191
vt 0.282101 0.675719
vt 0.281535 0.688518
vt 0.056832 0.686991
vt 0.015745 0.704687
vt 0.016411 0.696391
vt 0.024948 0.694493
vt 0.055377 0.654268
vt 0.056473 0.664272
vt 0.048136 0.664938
vt 0.046115 0.673612
vt 0.024939 0.940813
vt 0.016258 0.938847
vt 0.015541 0.930520
vt 0.055775 0.971060
vt 0.047487 0.970343
vt 0.045645 0.961799
vt 0.005546 0.931679
vt 0.291953 0.963374
vt 0.289931 0.972048
vt 0.281595 0.972714
vt 0.322323 0.932298
vt 0.321657 0.940595
vt 0.313120 0.942492
vt 0.282690 0.982718
vt 0.313128 0.696173
vt 0.321809 0.698138
vt 0.322526 0.706466
vt 0.282293 0.665926
vt 0.290580 0.666643
vt 0.292422 0.675186
vt 0.332521 0.705307
vt 0.039619 0.694547
vt 0.048724 0.697121
vt 0.048197 0.705911
vt 0.057420 0.696660
vt 0.046366 0.688175
vt 0.047918 0.929404
vt 0.048396 0.938081
vt 0.039483 0.940477
vt 0.057166 0.938624
vt 0.045786 0.947149
vt 0.280648 0.940326
vt 0.289344 0.939865
vt 0.291701 0.948811
vt 0.289871 0.931075
vt 0.298449 0.942439
vt 0.290149 0.707582
vt 0.289671 0.698905
vt 0.298584 0.696509
vt 0.280901 0.698362
vt 0.292281 0.689837
vt 0.005546 0.703535
vt 0.054559 0.981249
vt 0.332522 0.933450
vt 0.283509 0.655737
s 1
usemtl Counters_01.008
f 23/1/1 28/2/2 9/3/3 2/4/4
f 33/5/5 38/6/6 29/7/7 22/8/8
f 13/9/9 18/10/10 39/11/11 32/12/12
f 3/13/13 8/14/14 19/15/15 12/16/16
f 1/17/17 4/18/18 5/19/19
f 2/4/4 6/20/20 5/19/19 4/18/18
f 3/13/13 7/21/21 5/22/19 6/23/20
f 11/24/22 14/25/23 15/26/24
f 12/16/16 16/27/25 15/26/24 14/25/23
f 13/9/9 17/28/26 15/29/24 16/30/25
f 21/31/27 24/32/28 25/33/29
f 22/8/8 26/34/30 25/33/29 24/32/28
f 23/1/1 27/35/31 25/36/29 26/37/30
f 31/38/32 34/39/33 35/40/34
f 32/12/12 36/41/35 35/40/34 34/39/33
f 33/5/5 37/42/36 35/43/34 36/44/35
f 11/24/22 1/17/17 7/21/21 14/25/23
f 14/25/23 7/21/21 3/13/13 12/16/16
f 2/4/4 9/3/3 10/45/37 6/20/20
f 6/23/20 10/46/37 8/14/14 3/13/13
f 18/10/10 13/9/9 16/30/25 20/47/38
f 20/48/38 16/27/25 12/16/16 19/15/15
f 31/38/32 11/24/22 17/28/26 34/39/33
f 34/39/33 17/28/26 13/9/9 32/12/12
f 38/6/6 33/5/5 36/44/35 40/49/39
f 40/50/39 36/41/35 32/12/12 39/11/11
f 21/31/27 31/38/32 37/42/36 24/32/28
f 24/32/28 37/42/36 33/5/5 22/8/8
f 28/2/2 23/1/1 26/37/30 30/51/40
f 30/52/40 26/34/30 22/8/8 29/7/7
f 1/17/17 21/31/27 27/35/31 4/18/18
f 4/18/18 27/35/31 23/1/1 2/4/4
f 11/24/22 31/38/32 21/31/27 1/17/17
f 7/21/21 1/17/17 5/22/19
f 27/35/31 21/31/27 25/36/29
f 37/42/36 31/38/32 35/43/34
f 17/28/26 11/24/22 15/29/24
f 55/53/12 49/54/9 78/55/41 83/56/42
f 48/57/16 41/58/13 69/59/43 76/60/44
f 62/61/8 56/62/5 85/63/45 90/64/46
f 84/65/47 77/66/48 71/67/49 91/68/50
f 43/69/4 63/70/1 92/71/51 70/72/52
f 41/58/13 44/73/53 45/74/19 47/75/20
f 42/76/54 46/77/18 45/78/19
f 43/69/4 47/79/20 45/78/19 46/77/18
f 48/57/16 51/80/25 52/81/24 54/82/55
f 49/54/9 53/83/26 52/84/24 51/85/25
f 50/86/56 54/82/55 52/81/24
f 55/53/12 58/87/35 59/88/34 61/89/33
f 56/62/5 60/90/57 59/91/34 58/92/35
f 57/93/58 61/89/33 59/88/34
f 62/61/8 65/94/30 66/95/29 68/96/59
f 63/70/1 67/97/31 66/98/29 65/99/30
f 64/100/60 68/96/59 66/95/29
f 69/59/43 72/101/61 73/102/62 75/103/63
f 70/72/52 74/104/64 73/102/62 72/105/61
f 71/67/49 75/103/63 73/102/62 74/104/64
f 76/60/44 79/106/65 80/107/66 82/108/67
f 77/66/48 81/109/68 80/107/66 79/106/65
f 78/55/41 82/110/67 80/107/66 81/109/68
f 83/56/42 86/111/69 87/112/70 89/113/71
f 84/65/47 88/114/72 87/112/70 86/111/69
f 85/63/45 89/115/71 87/112/70 88/114/72
f 90/64/46 93/116/73 94/117/74 96/118/75
f 91/68/50 95/119/76 94/117/74 93/116/73
f 92/71/51 96/120/75 94/117/74 95/119/76
f 41/58/13 48/57/16 54/82/55 44/73/53
f 44/73/53 54/82/55 50/86/56 42/121/54
f 49/54/9 55/53/12 61/89/33 53/83/26
f 53/83/26 61/89/33 57/93/58 50/122/56
f 56/62/5 62/61/8 68/96/59 60/90/57
f 60/90/57 68/96/59 64/100/60 57/123/58
f 63/70/1 43/69/4 46/77/18 67/97/31
f 67/97/31 46/77/18 42/76/54 64/124/60
f 71/67/49 77/66/48 79/106/65 75/103/63
f 75/103/63 79/106/65 76/60/44 69/59/43
f 77/66/48 84/65/47 86/111/69 81/109/68
f 81/109/68 86/111/69 83/56/42 78/55/41
f 84/65/47 91/68/50 93/116/73 88/114/72
f 88/114/72 93/116/73 90/64/46 85/63/45
f 91/68/50 71/67/49 74/104/64 95/119/76
f 95/119/76 74/104/64 70/72/52 92/71/51
f 43/69/4 70/72/52 72/105/61 47/79/20
f 47/75/20 72/101/61 69/59/43 41/58/13
f 78/55/41 49/54/9 51/85/25 82/110/67
f 82/108/67 51/80/25 48/57/16 76/60/44
f 62/61/8 90/64/46 96/118/75 65/94/30
f 65/99/30 96/120/75 92/71/51 63/70/1
f 85/63/45 56/62/5 58/92/35 89/115/71
f 89/113/71 58/87/35 55/53/12 83/56/42
f 67/97/31 64/124/60 66/98/29
f 44/73/53 42/121/54 45/74/19
f 53/83/26 50/122/56 52/84/24
f 60/90/57 57/123/58 59/91/34
o DeliveryCounter.Base
v 0.546052 0.000000 1.821885
v 0.614308 0.068256 1.821885
v 0.546052 0.068256 1.923101
v 0.594316 0.019992 1.821885
v 0.585460 0.028849 1.880321
v 0.594316 0.068256 1.893455
v 0.546052 0.019992 1.893455
v 0.546052 0.477795 1.923101
v 0.614308 0.477795 1.821885
v 0.594316 0.477795 1.893455
v -0.546052 -0.000000 1.821885
v -0.546052 0.068256 1.923101
v -0.614308 0.068256 1.821885
v -0.546052 0.019992 1.893455
v -0.585460 0.028849 1.880321
v -0.594316 0.068256 1.893455
v -0.594316 0.019992 1.821885
v -0.614308 0.477795 1.821885
v -0.546052 0.477795 1.923101
v -0.594316 0.477795 1.893455
v 0.546052 0.000000 -1.821885
v 0.546052 0.068256 -1.923101
v 0.614308 0.068256 -1.821885
v 0.546052 0.019992 -1.893455
v 0.585460 0.028849 -1.880321
v 0.594316 0.068256 -1.893455
v 0.594316 0.019992 -1.821885
v 0.614308 0.477795 -1.821885
v 0.546052 0.477795 -1.923101
v 0.594316 0.477795 -1.893455
v -0.546052 -0.000000 -1.821885
v -0.614308 0.068256 -1.821885
v -0.546052 0.068256 -1.923101
v -0.594316 0.019992 -1.821885
v -0.585460 0.028849 -1.880321
v -0.594316 0.068256 -1.893455
v -0.546052 0.019992 -1.893455
v -0.546052 0.477795 -1.923101
v -0.614308 0.477795 -1.821885
v -0.594316 0.477795 -1.893455
v 0.614308 0.546052 2.024317
v 0.614308 0.477795 1.923101
v 0.682565 0.546052 1.923101
v 0.614308 0.497787 1.994672
v 0.653716 0.506644 1.981538
v 0.662573 0.497787 1.923101
v 0.662573 0.546052 1.994672
v -0.614308 0.546052 2.024317
v -0.682565 0.546052 1.923101
v -0.614308 0.477795 1.923101
v -0.662573 0.546052 1.994672
v -0.653716 0.506644 1.981538
v -0.662573 0.497787 1.923101
v -0.614308 0.497787 1.994672
v -0.682565 0.546052 -1.923101
v -0.614308 0.546052 -2.024317
v -0.614308 0.477795 -1.923101
v -0.662573 0.546052 -1.994672
v -0.653716 0.506644 -1.981538
v -0.614308 0.497787 -1.994672
v -0.662573 0.497787 -1.923101
v 0.614308 0.546052 -2.024317
v 0.682565 0.546052 -1.923101
v 0.614308 0.477795 -1.923101
v 0.662573 0.546052 -1.994672
v 0.653716 0.506644 -1.981538
v 0.662573 0.497787 -1.923101
v 0.614308 0.497787 -1.994672
v 0.614308 0.614308 2.024317
v 0.682565 0.614308 1.923101
v 0.614308 0.682565 1.923101
v 0.662573 0.614308 1.994672
v 0.653716 0.653716 1.981538
v 0.662573 0.662573 1.923101
v 0.614308 0.662573 1.994672
v -0.614308 0.614308 2.024317
v -0.614308 0.682565 1.923101
v -0.682565 0.614308 1.923101
v -0.614308 0.662573 1.994672
v -0.653716 0.653716 1.981538
v -0.662573 0.662573 1.923101
v -0.662573 0.614308 1.994672
v -0.682565 0.614308 -1.923101
v -0.614308 0.682565 -1.923101
v -0.614308 0.614308 -2.024317
v -0.662573 0.662573 -1.923101
v -0.653716 0.653716 -1.981538
v -0.614308 0.662573 -1.994672
v -0.662573 0.614308 -1.994672
v 0.614308 0.614308 -2.024317
v 0.614308 0.682565 -1.923101
v 0.682565 0.614308 -1.923101
v 0.614308 0.662573 -1.994672
v 0.653716 0.653716 -1.981538
v 0.662573 0.662573 -1.923101
v 0.662573 0.614308 -1.994672
vn 0.9759 -0.1810 -0.1220
vn 0.9911 -0.0000 -0.1330
vn 0.9911 -0.0000 0.1330
vn 0.9759 -0.1810 0.1220
vn -0.2563 -0.2563 -0.9320
vn -0.2829 -0.0000 -0.9591
vn 0.2829 -0.0000 -0.9591
vn 0.2563 -0.2563 -0.9320
vn -0.9759 -0.1810 0.1220
vn -0.9911 -0.0000 0.1330
vn -0.9911 -0.0000 -0.1330
vn -0.9759 -0.1810 -0.1220
vn 0.2563 -0.2563 0.9320
vn 0.2829 -0.0000 0.9591
vn -0.2829 -0.0000 0.9591
vn -0.2563 -0.2563 0.9320
vn 0.1810 -0.9759 0.1220
vn 0.7022 -0.7022 0.1173
vn 0.6383 -0.6383 0.4304
vn 0.2012 -0.8121 0.5477
vn 0.8121 -0.2012 0.5477
vn -0.1810 -0.9759 0.1220
vn -0.2012 -0.8121 0.5477
vn -0.6383 -0.6383 0.4304
vn -0.7022 -0.7022 0.1173
vn -0.8121 -0.2012 0.5477
vn 0.1810 -0.9759 -0.1220
vn 0.2012 -0.8121 -0.5477
vn 0.6383 -0.6383 -0.4304
vn 0.7022 -0.7022 -0.1173
vn 0.8121 -0.2012 -0.5477
vn -0.1810 -0.9759 -0.1220
vn -0.7022 -0.7022 -0.1173
vn -0.6383 -0.6383 -0.4304
vn -0.2012 -0.8121 -0.5477
vn -0.8121 -0.2012 -0.5477
vn 0.8291 -0.0000 0.5591
vn -0.8291 -0.0000 0.5591
vn -0.8291 -0.0000 -0.5591
vn 0.8291 -0.0000 -0.5591
vn -0.9759 0.1810 0.1220
vn -0.9759 0.1810 -0.1220
vn 0.2563 0.2563 0.9320
vn -0.2563 0.2563 0.9320
vn -0.2563 0.2563 -0.9320
vn 0.2563 0.2563 -0.9320
vn -0.1810 0.9759 -0.1220
vn -0.1810 0.9759 0.1220
vn 0.1810 0.9759 0.1220
vn 0.1810 0.9759 -0.1220
vn 0.9759 0.1810 -0.1220
vn 0.9759 0.1810 0.1220
vn 0.1875 -0.8101 0.5554
vn 0.6382 -0.6384 0.4304
vn 0.2440 -0.9557 0.1646
vn 0.7087 -0.6971 0.1088
vn -0.6382 -0.6384 0.4304
vn -0.1875 -0.8101 0.5554
vn -0.7087 -0.6971 0.1088
vn -0.2440 -0.9557 0.1646
vn -0.6382 -0.6384 -0.4304
vn -0.7087 -0.6971 -0.1088
vn -0.1875 -0.8101 -0.5554
vn -0.2440 -0.9557 -0.1646
vn 0.6382 -0.6384 -0.4304
vn 0.1875 -0.8101 -0.5554
vn 0.7087 -0.6971 -0.1088
vn 0.2440 -0.9557 -0.1646
vn 0.8121 0.2012 0.5477
vn 0.6383 0.6383 0.4304
vn 0.2012 0.8121 0.5477
vn 0.7022 0.7022 0.1173
vn -0.2012 0.8121 0.5477
vn -0.6383 0.6383 0.4304
vn -0.8121 0.2012 0.5477
vn -0.7022 0.7022 0.1173
vn -0.7022 0.7022 -0.1173
vn -0.6383 0.6383 -0.4304
vn -0.8121 0.2012 -0.5477
vn -0.2012 0.8121 -0.5477
vn 0.2012 0.8121 -0.5477
vn 0.6383 0.6383 -0.4304
vn 0.8121 0.2012 -0.5477
vn 0.7022 0.7022 -0.1173
vt 0.084397 0.546329
vt 0.005546 0.554378
vt 0.005546 0.097071
vt 0.082697 0.104303
vt 0.300463 0.562366
vt 0.308086 0.643176
vt 0.095316 0.642194
vt 0.102216 0.563900
vt 0.316462 0.102393
vt 0.395313 0.094343
vt 0.395313 0.551651
vt 0.318162 0.544419
vt 0.100395 0.086356
vt 0.092773 0.005546
vt 0.305543 0.006527
vt 0.298642 0.084822
vt 0.101817 0.105575
vt 0.092375 0.105225
vt 0.093004 0.096868
vt 0.101392 0.096107
vt 0.084636 0.094138
vt 0.090056 0.088432
vt 0.297443 0.103866
vt 0.297761 0.094457
vt 0.306104 0.095099
vt 0.306879 0.103412
vt 0.308859 0.086730
vt 0.314408 0.092234
vt 0.103416 0.544856
vt 0.103098 0.554265
vt 0.094755 0.553623
vt 0.093980 0.545310
vt 0.092000 0.561992
vt 0.086451 0.556488
vt 0.299041 0.543147
vt 0.308484 0.543497
vt 0.307855 0.551854
vt 0.299466 0.552615
vt 0.316223 0.554584
vt 0.310803 0.560290
vt 0.006444 0.087097
vt 0.082125 0.006545
vt 0.394269 0.083958
vt 0.315663 0.007395
vt 0.318734 0.642176
vt 0.394415 0.561625
vt 0.006590 0.564764
vt 0.085196 0.641326
vt 0.426233 0.531691
vt 0.426287 0.057679
vt 0.439055 0.058150
vt 0.439010 0.531464
vt 0.457098 0.026783
vt 0.684161 0.025692
vt 0.683723 0.038586
vt 0.457410 0.039662
vt 0.684088 0.561750
vt 0.457026 0.562842
vt 0.457464 0.549948
vt 0.683777 0.548870
vt 0.458324 0.530448
vt 0.458485 0.059045
vt 0.682863 0.058086
vt 0.682702 0.529488
vt 0.714954 0.056842
vt 0.714899 0.530854
vt 0.702131 0.530383
vt 0.702177 0.057069
vt 0.684246 0.015824
vt 0.692605 0.016454
vt 0.694556 0.025045
vt 0.734782 0.055448
vt 0.724840 0.056598
vt 0.724134 0.048300
vt 0.715486 0.046319
vt 0.446476 0.026324
vt 0.448405 0.017569
vt 0.456789 0.016799
vt 0.416532 0.057560
vt 0.417182 0.049310
vt 0.425669 0.047398
vt 0.455568 0.006738
vt 0.425701 0.542214
vt 0.417053 0.540233
vt 0.416346 0.531935
vt 0.456941 0.572709
vt 0.448582 0.572079
vt 0.446630 0.563488
vt 0.406405 0.533086
vt 0.694711 0.562208
vt 0.692782 0.570964
vt 0.684398 0.571733
vt 0.724655 0.530973
vt 0.724005 0.539223
vt 0.715517 0.541135
vt 0.685619 0.581795
vt 0.694565 0.039819
vt 0.692008 0.048991
vt 0.683173 0.048497
vt 0.692507 0.057708
vt 0.700955 0.046611
vt 0.458097 0.049383
vt 0.449382 0.049925
vt 0.446906 0.040971
vt 0.448902 0.058720
vt 0.440286 0.047400
vt 0.448680 0.530825
vt 0.449179 0.539542
vt 0.440232 0.541922
vt 0.458014 0.540036
vt 0.446621 0.548714
vt 0.683089 0.539150
vt 0.691804 0.538608
vt 0.694280 0.547561
vt 0.692284 0.529813
vt 0.700900 0.541133
vt 0.685355 0.005546
vt 0.406405 0.056424
vt 0.455832 0.582988
vt 0.734782 0.532109
s 1
usemtl Counters_01.001
f 119/125/77 124/126/78 105/127/79 98/128/80
f 129/129/81 134/130/82 125/131/83 118/132/84
f 109/133/85 114/134/86 135/135/87 128/136/88
f 99/137/89 104/138/90 115/139/91 108/140/92
f 97/141/93 100/142/94 101/143/95 103/144/96
f 98/128/80 102/145/97 101/143/95 100/142/94
f 99/137/89 103/144/96 101/143/95 102/146/97
f 107/147/98 110/148/99 111/149/100 113/150/101
f 108/140/92 112/151/102 111/149/100 110/148/99
f 109/133/85 113/150/101 111/149/100 112/152/102
f 117/153/103 120/154/104 121/155/105 123/156/106
f 118/132/84 122/157/107 121/155/105 120/154/104
f 119/125/77 123/156/106 121/155/105 122/158/107
f 127/159/108 130/160/109 131/161/110 133/162/111
f 128/136/88 132/163/112 131/161/110 130/160/109
f 129/129/81 133/162/111 131/161/110 132/164/112
f 107/147/98 97/141/93 103/144/96 110/148/99
f 110/148/99 103/144/96 99/137/89 108/140/92
f 98/128/80 105/127/79 106/165/113 102/145/97
f 102/146/97 106/166/113 104/138/90 99/137/89
f 114/134/86 109/133/85 112/152/102 116/167/114
f 116/168/114 112/151/102 108/140/92 115/139/91
f 127/159/108 107/147/98 113/150/101 130/160/109
f 130/160/109 113/150/101 109/133/85 128/136/88
f 134/130/82 129/129/81 132/164/112 136/169/115
f 136/170/115 132/163/112 128/136/88 135/135/87
f 117/153/103 127/159/108 133/162/111 120/154/104
f 120/154/104 133/162/111 129/129/81 118/132/84
f 124/126/78 119/125/77 122/158/107 126/171/116
f 126/172/116 122/157/107 118/132/84 125/131/83
f 97/141/93 117/153/103 123/156/106 100/142/94
f 100/142/94 123/156/106 119/125/77 98/128/80
f 107/147/98 127/159/108 117/153/103 97/141/93
f 151/173/88 145/174/85 174/175/117 179/176/118
f 144/177/92 137/178/89 165/179/119 172/180/120
f 158/181/84 152/182/81 181/183/121 186/184/122
f 180/185/123 173/186/124 167/187/125 187/188/126
f 139/189/80 159/190/77 188/191/127 166/192/128
f 137/178/89 140/193/129 141/194/130 143/195/97
f 138/196/131 142/197/132 141/198/130
f 139/189/80 143/199/97 141/198/130 142/197/132
f 144/177/92 147/200/102 148/201/133 150/202/134
f 145/174/85 149/203/135 148/204/133 147/205/102
f 146/206/136 150/202/134 148/201/133
f 151/173/88 154/207/112 155/208/137 157/209/138
f 152/182/81 156/210/139 155/211/137 154/212/112
f 153/213/140 157/209/138 155/208/137
f 158/181/84 161/214/107 162/215/141 164/216/142
f 159/190/77 163/217/143 162/218/141 161/219/107
f 160/220/144 164/216/142 162/215/141
f 165/179/119 168/221/145 169/222/146 171/223/147
f 166/192/128 170/224/148 169/222/146 168/225/145
f 167/187/125 171/223/147 169/222/146 170/224/148
f 172/180/120 175/226/149 176/227/150 178/228/151
f 173/186/124 177/229/152 176/227/150 175/226/149
f 174/175/117 178/230/151 176/227/150 177/229/152
f 179/176/118 182/231/153 183/232/154 185/233/155
f 180/185/123 184/234/156 183/232/154 182/231/153
f 181/183/121 185/235/155 183/232/154 184/234/156
f 186/184/122 189/236/157 190/237/158 192/238/159
f 187/188/126 191/239/160 190/237/158 189/236/157
f 188/191/127 192/240/159 190/237/158 191/239/160
f 137/178/89 144/177/92 150/202/134 140/193/129
f 140/193/129 150/202/134 146/206/136 138/241/131
f 145/174/85 151/173/88 157/209/138 149/203/135
f 149/203/135 157/209/138 153/213/140 146/242/136
f 152/182/81 158/181/84 164/216/142 156/210/139
f 156/210/139 164/216/142 160/220/144 153/243/140
f 159/190/77 139/189/80 142/197/132 163/217/143
f 163/217/143 142/197/132 138/196/131 160/244/144
f 167/187/125 173/186/124 175/226/149 171/223/147
f 171/223/147 175/226/149 172/180/120 165/179/119
f 173/186/124 180/185/123 182/231/153 177/229/152
f 177/229/152 182/231/153 179/176/118 174/175/117
f 180/185/123 187/188/126 189/236/157 184/234/156
f 184/234/156 189/236/157 186/184/122 181/183/121
f 187/188/126 167/187/125 170/224/148 191/239/160
f 191/239/160 170/224/148 166/192/128 188/191/127
f 139/189/80 166/192/128 168/225/145 143/199/97
f 143/195/97 168/221/145 165/179/119 137/178/89
f 174/175/117 145/174/85 147/205/102 178/230/151
f 178/228/151 147/200/102 144/177/92 172/180/120
f 158/181/84 186/184/122 192/238/159 161/214/107
f 161/219/107 192/240/159 188/191/127 159/190/77
f 181/183/121 152/182/81 154/212/112 185/235/155
f 185/233/155 154/207/112 151/173/88 179/176/118
f 140/193/129 138/241/131 141/194/130
f 149/203/135 146/242/136 148/204/133
f 156/210/139 153/243/140 155/211/137
f 163/217/143 160/244/144 162/218/141
