# Blender 4.0.2
# www.blender.org
mtllib floor.mtl
o Wall
v 8.745053 0.007407 -2.886817
v 8.745053 -0.620659 -2.886817
v -8.738843 0.007407 -2.886817
v -8.738843 -0.620659 -2.886817
v 8.745053 0.007408 1.160331
v 8.745053 -0.620659 1.160331
v -8.738843 -0.620659 1.160331
v -8.738843 0.007408 1.160331
vn -0.0000 1.0000 -0.0000
vn -0.0000 -1.0000 -0.0000
vn 1.0000 -0.0000 -0.0000
vn -0.0000 -0.0000 -1.0000
vn -1.0000 -0.0000 -0.0000
vt 0.857583 0.200043
vt 0.001992 0.200043
vt 0.001992 0.001992
vt 0.857583 0.001992
vt 0.857583 0.200043
vt 0.857583 0.001992
s 0
usemtl Wall
f 8/1/1 5/2/1 1/3/1 3/4/1
f 7/5/2 4/6/2 2/3/2 6/2/2
f 5/2/3 6/2/3 2/3/3 1/3/3
f 1/3/4 2/3/4 4/6/4 3/4/4
f 3/4/5 4/6/5 7/5/5 8/1/5
o Wall.001
v 8.745053 0.007407 1.156361
v 8.745053 -0.620659 1.156361
v -8.738843 0.007407 1.156361
v -8.738843 -0.620659 1.156361
v 8.745053 0.007408 5.203508
v 8.745053 -0.620659 5.203509
v -8.738843 -0.620659 5.203509
v -8.738843 0.007408 5.203508
vn -0.0000 1.0000 -0.0000
vn -0.0000 -1.0000 -0.0000
vn 1.0000 -0.0000 -0.0000
vn -0.0000 -0.0000 -1.0000
vn -1.0000 -0.0000 -0.0000
vt 0.857583 0.200043
vt 0.001992 0.200043
vt 0.001992 0.001992
vt 0.857583 0.001992
vt 0.857583 0.200043
vt 0.857583 0.001992
s 0
usemtl Wall
f 16/7/6 13/8/6 9/9/6 11/10/6
f 15/11/7 12/12/7 10/9/7 14/8/7
f 13/8/8 14/8/8 10/9/8 9/9/8
f 9/9/9 10/9/9 12/12/9 11/10/9
f 11/10/10 12/12/10 15/11/10 16/7/10
o Wall.002
v 8.745053 0.007407 5.203508
v 8.745053 -0.620659 5.203508
v -8.738843 0.007407 5.203508
v -8.738843 -0.620659 5.203508
v 8.745053 0.007408 9.250656
v 8.745053 -0.620659 9.250656
v -8.738843 -0.620659 9.250656
v -8.738843 0.007408 9.250656
vn -0.0000 1.0000 -0.0000
vn -0.0000 -1.0000 -0.0000
vn 1.0000 -0.0000 -0.0000
vn -0.0000 -0.0000 -1.0000
vn -1.0000 -0.0000 -0.0000
vt 0.857583 0.200043
vt 0.001992 0.200043
vt 0.001992 0.001992
vt 0.857583 0.001992
vt 0.857583 0.200043
vt 0.857583 0.001992
s 0
usemtl Wall
f 24/13/11 21/14/11 17/15/11 19/16/11
f 23/17/12 20/18/12 18/15/12 22/14/12
f 21/14/13 22/14/13 18/15/13 17/15/13
f 17/15/14 18/15/14 20/18/14 19/16/14
f 19/16/15 20/18/15 23/17/15 24/13/15
o Wall.003
v 8.745053 0.007407 9.244482
v 8.745053 -0.620659 9.244482
v -8.738843 0.007407 9.244482
v -8.738843 -0.620659 9.244482
v 8.745053 0.007408 13.291630
v 8.745053 -0.620659 13.291630
v -8.738843 -0.620659 13.291630
v -8.738843 0.007408 13.291630
vn -0.0000 1.0000 -0.0000
vn -0.0000 -1.0000 -0.0000
vn 1.0000 -0.0000 -0.0000
vn -0.0000 -0.0000 -1.0000
vn -1.0000 -0.0000 -0.0000
vt 0.857583 0.200043
vt 0.001992 0.200043
vt 0.001992 0.001992
vt 0.857583 0.001992
vt 0.857583 0.200043
vt 0.857583 0.001992
s 0
usemtl Wall
f 32/19/16 29/20/16 25/21/16 27/22/16
f 31/23/17 28/24/17 26/21/17 30/20/17
f 29/20/18 30/20/18 26/21/18 25/21/18
f 25/21/19 26/21/19 28/24/19 27/22/19
f 27/22/20 28/24/20 31/23/20 32/19/20
